<?xml version="1.0" encoding="UTF-8"?>
<!DOCTYPE svg PUBLIC "-//W3C//DTD SVG 1.1//EN" "http://www.w3.org/Graphics/SVG/1.1/DTD/svg11.dtd">
<svg xmlns="http://www.w3.org/2000/svg" version="1.1" width="24px" height="24px" style="shape-rendering:geometricPrecision; text-rendering:geometricPrecision; image-rendering:optimizeQuality; fill-rule:evenodd; clip-rule:evenodd" xmlns:xlink="http://www.w3.org/1999/xlink">
<g><path style="opacity:0.727" fill="#282c31" d="M 23.5,12.5 C 23.5,13.8333 23.5,15.1667 23.5,16.5C 22.7987,18.7105 21.4653,20.5438 19.5,22C 2.43821,26.9393 -3.39513,21.106 2,4.5C 6.03563,1.61639 10.369,0.616385 15,1.5C 15.4935,3.13414 15.6602,4.80081 15.5,6.5C 17.1992,6.33982 18.8659,6.50649 20.5,7C 21.6087,8.87614 22.6087,10.7095 23.5,12.5 Z M 11.5,2.5 C 13.1042,3.28696 13.7709,4.6203 13.5,6.5C 10.4816,6.66463 7.48162,6.49796 4.5,6C 7.06905,5.10163 9.40239,3.93496 11.5,2.5 Z M 4.5,8.5 C 9.17853,8.33418 13.8452,8.50085 18.5,9C 18.9574,9.41395 19.2907,9.91395 19.5,10.5C 17.6091,11.3107 16.2758,12.6441 15.5,14.5C 16.9251,16.2457 18.0918,17.9124 19,19.5C 14.2523,20.6349 9.41901,20.8015 4.5,20C 3.19983,16.1675 3.19983,12.3342 4.5,8.5 Z M 18.5,13.5 C 20.337,13.6395 20.6704,14.3061 19.5,15.5C 18.7025,15.0431 18.3691,14.3764 18.5,13.5 Z"/></g>
<g><path style="opacity:0.71" fill="#282c31" d="M 5.5,10.5 C 8.57186,10.1826 11.5719,10.5159 14.5,11.5C 13,11.8333 11.5,12.1667 10,12.5C 8.01448,12.4313 6.51448,11.7647 5.5,10.5 Z"/></g>
</svg>
