<svg width="24" height="24" viewBox="0 0 24 24" fill="transparent" xmlns="http://www.w3.org/2000/svg">
<path d="M22.75 12C22.75 17.93 17.93 22.75 12 22.75C6.07 22.75 1.25 17.93 1.25 12C1.25 6.07 6.07 1.25 12 1.25C17.93 1.25 22.75 6.07 22.75 12ZM2.75 12C2.75 17.1 6.9 21.25 12 21.25C17.1 21.25 21.25 17.1 21.25 12C21.25 6.9 17.1 2.75 12 2.75C6.9 2.75 2.75 6.9 2.75 12Z" fill="currentColor"/>
<path d="M15.25 12C15.25 12.41 14.91 12.75 14.5 12.75L8.5 12.75C8.09 12.75 7.75 12.41 7.75 12C7.75 11.59 8.09 11.25 8.5 11.25L14.5 11.25C14.91 11.25 15.25 11.59 15.25 12Z" fill="currentColor"/>
<path d="M16.2504 11.9996C16.2504 12.1896 16.1804 12.3796 16.0304 12.5296L13.0304 15.5296C12.7404 15.8196 12.2604 15.8196 11.9704 15.5296C11.6804 15.2396 11.6804 14.7596 11.9704 14.4696L14.4404 11.9996L11.9704 9.52957C11.6804 9.23957 11.6804 8.75957 11.9704 8.46957C12.2604 8.17957 12.7404 8.17957 13.0304 8.46957L16.0304 11.4696C16.1804 11.6196 16.2504 11.8096 16.2504 11.9996Z" fill="currentColor"/>
</svg>
