<svg width="20" height="20" viewBox="0 0 20 20" fill="none" xmlns="http://www.w3.org/2000/svg">
<path d="M12.4993 18.9584H7.49935C2.97435 18.9584 1.04102 17.0251 1.04102 12.5001V7.50008C1.04102 2.97508 2.97435 1.04175 7.49935 1.04175H12.4993C17.0243 1.04175 18.9577 2.97508 18.9577 7.50008V12.5001C18.9577 17.0251 17.0243 18.9584 12.4993 18.9584ZM7.49935 2.29175C3.65768 2.29175 2.29102 3.65841 2.29102 7.50008V12.5001C2.29102 16.3417 3.65768 17.7084 7.49935 17.7084H12.4993C16.341 17.7084 17.7077 16.3417 17.7077 12.5001V7.50008C17.7077 3.65841 16.341 2.29175 12.4993 2.29175H7.49935Z" fill="#131B22"/>
<path d="M13.125 8.125H6.875C6.53333 8.125 6.25 7.84167 6.25 7.5C6.25 7.15833 6.53333 6.875 6.875 6.875H13.125C13.4667 6.875 13.75 7.15833 13.75 7.5C13.75 7.84167 13.4667 8.125 13.125 8.125Z" fill="#131B22"/>
<path d="M13.125 13.125H6.875C6.53333 13.125 6.25 12.8417 6.25 12.5C6.25 12.1583 6.53333 11.875 6.875 11.875H13.125C13.4667 11.875 13.75 12.1583 13.75 12.5C13.75 12.8417 13.4667 13.125 13.125 13.125Z" fill="#292D32"/>
</svg>
