<svg width="30" height="30" viewBox="0 0 30 30" fill="none" xmlns="http://www.w3.org/2000/svg">
<path d="M15 2.5C8.1125 2.5 2.5 8.1125 2.5 15C2.5 21.8875 8.1125 27.5 15 27.5C21.8875 27.5 27.5 21.8875 27.5 15C27.5 8.1125 21.8875 2.5 15 2.5ZM14.0625 10C14.0625 9.4875 14.4875 9.0625 15 9.0625C15.5125 9.0625 15.9375 9.4875 15.9375 10V16.25C15.9375 16.7625 15.5125 17.1875 15 17.1875C14.4875 17.1875 14.0625 16.7625 14.0625 16.25V10ZM16.15 20.475C16.0875 20.6375 16 20.7625 15.8875 20.8875C15.7625 21 15.625 21.0875 15.475 21.15C15.325 21.2125 15.1625 21.25 15 21.25C14.8375 21.25 14.675 21.2125 14.525 21.15C14.375 21.0875 14.2375 21 14.1125 20.8875C14 20.7625 13.9125 20.6375 13.85 20.475C13.7875 20.325 13.75 20.1625 13.75 20C13.75 19.8375 13.7875 19.675 13.85 19.525C13.9125 19.375 14 19.2375 14.1125 19.1125C14.2375 19 14.375 18.9125 14.525 18.85C14.825 18.725 15.175 18.725 15.475 18.85C15.625 18.9125 15.7625 19 15.8875 19.1125C16 19.2375 16.0875 19.375 16.15 19.525C16.2125 19.675 16.25 19.8375 16.25 20C16.25 20.1625 16.2125 20.325 16.15 20.475Z" fill="#80878C"/>
</svg>
