<svg width="20" height="20" viewBox="0 0 20 20" fill="none" xmlns="http://www.w3.org/2000/svg">
<path d="M18.3329 10.3334H13.4996C11.9163 10.3334 10.7246 9.14175 10.7246 7.55842V4.87506C10.7246 3.29173 11.9163 2.1001 13.4996 2.1001H16.1829C17.7079 2.1001 18.9579 3.34173 18.9579 4.87506V9.70844C18.9579 10.0584 18.6746 10.3334 18.3329 10.3334ZM13.4996 3.35844C12.6163 3.35844 11.9746 4.00007 11.9746 4.8834V7.56676C11.9746 8.4501 12.6163 9.09173 13.4996 9.09173H17.7079V4.8834C17.7079 4.04174 17.0246 3.35844 16.1829 3.35844H13.4996Z" fill="#131B22"/>
<path d="M14.5578 17.8915C14.3411 17.8915 14.1328 17.7832 14.0161 17.5832C13.8411 17.2832 13.9411 16.8999 14.2328 16.7249C16.9244 15.1249 17.7078 14.4583 17.7078 9.70825C17.7078 9.36659 17.9911 9.08325 18.3328 9.08325C18.6744 9.08325 18.9578 9.36659 18.9578 9.70825C18.9578 14.9166 17.8994 16.0082 14.8744 17.7999C14.7744 17.8666 14.6661 17.8915 14.5578 17.8915Z" fill="#131B22"/>
<path d="M8.64154 10.3334H3.8082C2.22487 10.3334 1.0332 9.14175 1.0332 7.55842V4.87506C1.0332 3.29173 2.22487 2.1001 3.8082 2.1001H6.49987C8.02487 2.1001 9.27487 3.34173 9.27487 4.87506V9.70844C9.26654 10.0584 8.99154 10.3334 8.64154 10.3334ZM3.81654 3.35844C2.9332 3.35844 2.29154 4.00007 2.29154 4.8834V7.56676C2.29154 8.4501 2.9332 9.09173 3.81654 9.09173H8.02487V4.8834C8.02487 4.04174 7.34154 3.35844 6.49987 3.35844H3.81654Z" fill="#292D32"/>
<path d="M4.86637 17.8915C4.6497 17.8915 4.44137 17.7832 4.3247 17.5832C4.1497 17.2832 4.2497 16.8999 4.54137 16.7249C7.23304 15.1249 8.01637 14.4583 8.01637 9.70825C8.01637 9.36659 8.2997 9.08325 8.64137 9.08325C8.98304 9.08325 9.26637 9.36659 9.26637 9.70825C9.26637 14.9166 8.20804 16.0082 5.18304 17.7999C5.08304 17.8666 4.9747 17.8915 4.86637 17.8915Z" fill="#292D32"/>
</svg>
